<?xml version="1.0" encoding="UTF-8"?>
<svg width="500px" height="500px" viewBox="0 0 500 500" version="1.1" xmlns="http://www.w3.org/2000/svg" xmlns:xlink="http://www.w3.org/1999/xlink">
    <title>Artboard</title>
    <defs>
        <radialGradient cx="0%" cy="100%" fx="0%" fy="100%" r="141.421356%" id="radialGradient-1">
            <stop stop-color="#2E1065" offset="0%"></stop>
            <stop stop-color="#45198F" offset="57.927229%"></stop>
            <stop stop-color="#5B21B6" offset="100%"></stop>
        </radialGradient>
        <path d="M303.333333,330 L316.666667,330 L316.666667,316.666667 L303.333333,316.666667 L303.333333,330 Z M383.333333,330 L396.666667,330 L396.666667,316.666667 L383.333333,316.666667 L383.333333,330 Z M384.666667,366 C376.482977,376.911587 363.639483,383.333333 350,383.333333 C336.360517,383.333333 323.517023,376.911587 315.333333,366 L304.666667,374 C327.333333,404.226667 372.666667,404.226667 395.333333,374 L384.666667,366 Z M263.333333,316.666667 L263.333333,283.333333 L250,283.333333 L250,316.666667 L263.333333,316.666667 Z M283.333333,263.333333 L316.666667,263.333333 L316.666667,250 L283.333333,250 L283.333333,263.333333 Z M263.333333,283.333333 C263.333333,272.287638 272.287638,263.333333 283.333333,263.333333 L283.333333,250 C264.923842,250 250,264.923842 250,283.333333 L263.333333,283.333333 L263.333333,283.333333 Z M250,383.333333 L250,416.666667 L263.333333,416.666667 L263.333333,383.333333 L250,383.333333 Z M283.333333,450 L316.666667,450 L316.666667,436.666667 L283.333333,436.666667 L283.333333,450 Z M250,416.666667 C250,435.076158 264.923842,450 283.333333,450 L283.333333,436.666667 C272.287638,436.666667 263.333333,427.712362 263.333333,416.666667 L250,416.666667 L250,416.666667 Z M383.333333,263.333333 L416.666667,263.333333 L416.666667,250 L383.333333,250 L383.333333,263.333333 Z M436.666667,283.333333 L436.666667,316.666667 L450,316.666667 L450,283.333333 L436.666667,283.333333 Z M416.666667,263.333333 C427.712362,263.333333 436.666667,272.287638 436.666667,283.333333 L450,283.333333 C450,264.923842 435.076158,250 416.666667,250 L416.666667,263.333333 Z M383.333333,450 L416.666667,450 L416.666667,436.666667 L383.333333,436.666667 L383.333333,450 Z M450,416.666667 L450,383.333333 L436.666667,383.333333 L436.666667,416.666667 L450,416.666667 Z M416.666667,450 C435.076158,450 450,435.076158 450,416.666667 L436.666667,416.666667 C436.666667,427.712362 427.712362,436.666667 416.666667,436.666667 L416.666667,450 L416.666667,450 Z" id="path-2"></path>
        <filter x="-26.0%" y="-25.0%" width="152.0%" height="152.0%" filterUnits="objectBoundingBox" id="filter-3">
            <feMorphology radius="5" operator="dilate" in="SourceAlpha" result="shadowSpreadOuter1"></feMorphology>
            <feOffset dx="0" dy="2" in="shadowSpreadOuter1" result="shadowOffsetOuter1"></feOffset>
            <feGaussianBlur stdDeviation="12" in="shadowOffsetOuter1" result="shadowBlurOuter1"></feGaussianBlur>
            <feColorMatrix values="0 0 0 0 0.917647059   0 0 0 0 0.701960784   0 0 0 0 0.031372549  0 0 0 0.23789882 0" type="matrix" in="shadowBlurOuter1"></feColorMatrix>
        </filter>
        <path d="M214.619622,94.6165243 C224.608775,111.302103 228.872907,130.783116 226.765375,150.105331 L226.765375,161.217909 C226.765375,172.893525 229.809238,184.376522 235.6,194.511193 M94.2905479,138.992753 C94.2905479,127.21342 98.938006,115.923041 107.223251,107.596016 C115.48004,99.2844673 126.720699,94.6067444 138.448824,94.6017075 C150.163982,94.6017075 161.389152,99.2689904 169.674397,107.596016 C177.959641,115.923041 182.607099,127.21342 182.607099,139.00757 L182.607099,150.090514 C182.607099,174.1085 190.357812,197.474547 204.686237,216.691899 M138.463427,138.992753 L138.463427,161.188276 C138.407458,192.898813 148.024594,223.875363 166.03661,250 M94.2905479,183.398615 C96.9857533,206.582086 103.708554,229.119614 114.157318,250 M60.065657,227.804477 C52.6239905,202.598975 49.2705002,176.367903 50.1322721,150.105331 L50.1322721,139.022386 C50.0839509,123.42812 54.1280471,108.092989 61.8622781,94.5424405 C69.5781198,81.0301655 80.7275922,69.7866793 94.1866111,61.9455446 C121.499237,46.0393751 155.273085,46.0167369 182.607099,61.8862776" id="path-4"></path>
        <filter x="-29.4%" y="-26.3%" width="161.2%" height="156.9%" filterUnits="objectBoundingBox" id="filter-5">
            <feMorphology radius="12.5" operator="dilate" in="SourceAlpha" result="shadowSpreadOuter1"></feMorphology>
            <feOffset dx="0" dy="2" in="shadowSpreadOuter1" result="shadowOffsetOuter1"></feOffset>
            <feMorphology radius="12.5" operator="erode" in="SourceAlpha" result="shadowInner"></feMorphology>
            <feOffset dx="0" dy="2" in="shadowInner" result="shadowInner"></feOffset>
            <feComposite in="shadowOffsetOuter1" in2="shadowInner" operator="out" result="shadowOffsetOuter1"></feComposite>
            <feGaussianBlur stdDeviation="12" in="shadowOffsetOuter1" result="shadowBlurOuter1"></feGaussianBlur>
            <feColorMatrix values="0 0 0 0 0.917647059   0 0 0 0 0.701960784   0 0 0 0 0.031372549  0 0 0 0.5 0" type="matrix" in="shadowBlurOuter1"></feColorMatrix>
        </filter>
    </defs>
    <g id="Artboard" stroke="none" stroke-width="1" fill="none" fill-rule="evenodd">
        <rect id="Rectangle" fill="url(#radialGradient-1)" x="0" y="0" width="500" height="500"></rect>
        <g id="Shape" fill-rule="nonzero">
            <use fill="black" fill-opacity="1" filter="url(#filter-3)" xlink:href="#path-2"></use>
            <use fill="#EAB308" xlink:href="#path-2"></use>
        </g>
        <g id="Shape" stroke-linecap="square" stroke-linejoin="round">
            <use fill="black" fill-opacity="1" filter="url(#filter-5)" xlink:href="#path-4"></use>
            <use stroke="#EAB308" stroke-width="15" xlink:href="#path-4"></use>
        </g>
    </g>
</svg>